<svg xmlns="http://www.w3.org/2000/svg" width="600" height="600" viewBox="0 0 600 600">
<g>
<path d="M 47.48 359.58 C43.12,363.82 38.44,364.29 37.06,360.64 C36.56,359.35 36.24,343.72 36.33,325.92 L 36.50 293.55 L 39.17 292.61 C41.18,291.90 42.47,292.08 44.34,293.30 C47.18,295.17 47.49,297.45 48.59,325.25 C48.93,333.91 49.61,341.00 50.10,341.00 C50.60,341.00 51.00,344.41 51.00,348.58 C51.00,355.94 50.90,356.27 47.48,359.58 ZM 126.42 382.53 C126.84,384.20 126.44,385.56 125.14,386.86 C123.29,388.71 123.18,388.71 119.65,386.69 C117.68,385.56 115.37,383.20 114.54,381.44 C112.93,378.05 110.25,376.72 107.80,378.09 C106.77,378.67 103.95,377.36 98.66,373.85 C94.45,371.06 91.00,368.34 91.00,367.82 C91.00,365.88 93.12,363.00 94.54,363.00 C95.34,363.00 96.00,362.55 96.00,362.00 C96.00,360.43 100.61,360.83 102.02,362.52 C102.77,363.43 104.61,363.95 106.59,363.82 C110.48,363.56 114.03,366.26 113.49,369.08 C113.04,371.37 114.28,372.69 120.81,376.88 C123.81,378.80 126.05,381.06 126.42,382.53 ZM 64.80 391.37 C62.89,393.53 61.45,394.04 56.29,394.35 C51.28,394.66 49.76,394.39 48.47,392.97 C47.59,391.99 46.95,390.59 47.05,389.85 C47.45,386.96 46.95,384.91 46.00,385.50 C45.45,385.84 45.00,385.42 45.00,384.56 C45.00,383.70 45.45,383.00 46.00,383.00 C46.55,383.00 47.00,381.98 47.00,380.72 C47.00,377.17 49.75,374.00 52.81,374.02 C54.91,374.03 55.17,374.24 54.00,375.00 C52.91,375.70 53.81,375.97 57.23,375.98 C61.57,376.00 62.01,376.23 62.57,378.75 C63.81,384.29 64.27,385.53 65.67,387.14 C66.93,388.57 66.82,389.08 64.80,391.37 ZM 77.80 331.77 C77.42,333.75 75.12,334.40 73.09,333.09 C72.31,332.59 70.84,332.34 69.84,332.53 C68.83,332.73 68.00,332.46 68.00,331.94 C68.00,331.42 67.32,331.00 66.50,331.00 C65.42,331.00 65.00,329.89 65.00,327.00 C65.00,324.80 65.45,323.00 66.00,323.00 C66.55,323.00 67.01,323.56 67.02,324.25 C67.03,325.16 67.27,325.13 67.90,324.13 C68.57,323.07 69.27,323.45 71.01,325.81 C72.25,327.48 74.36,329.12 75.70,329.46 C77.29,329.86 78.02,330.66 77.80,331.77 ZM 82.37 358.75 C83.73,361.39 83.69,361.51 81.30,361.65 C77.99,361.85 74.43,358.40 75.99,356.51 C76.84,355.48 76.71,354.93 75.40,354.20 C74.29,353.58 73.93,352.63 74.37,351.48 C74.94,349.98 74.81,349.91 73.50,351.00 C72.65,351.71 71.70,352.03 71.39,351.72 C70.46,350.79 74.74,348.96 76.39,349.60 C78.16,350.27 79.42,353.51 78.51,354.99 C78.16,355.55 78.57,356.00 79.42,356.00 C80.26,356.00 81.59,357.24 82.37,358.75 ZM 68.93 370.13 C67.87,372.12 66.29,372.47 64.25,371.18 C63.27,370.55 63.32,369.97 64.47,368.44 C65.45,367.14 65.95,366.95 65.97,367.87 C65.99,368.91 66.33,368.97 67.34,368.13 C69.17,366.61 70.15,367.84 68.93,370.13 Z" fill="rgb(88,157,133)"/>
<path d="M 77.80 331.77 C78.02,330.66 77.29,329.86 75.70,329.46 C74.36,329.12 72.25,327.48 71.01,325.81 C69.27,323.45 68.57,323.07 67.90,324.13 C67.27,325.13 67.03,325.16 67.02,324.25 C67.01,323.56 66.55,323.00 66.00,323.00 C65.47,323.00 65.04,324.65 65.00,326.73 C65.00,325.88 65.00,324.97 65.00,324.00 C65.00,310.89 65.21,308.87 66.50,309.36 C67.32,309.68 68.00,309.50 68.00,308.97 C68.00,307.44 70.03,308.28 72.87,311.00 C75.88,313.88 77.96,319.07 77.98,323.75 C77.99,325.54 78.47,327.00 79.05,327.00 C79.72,327.00 80.03,329.94 79.91,334.96 C79.72,342.89 79.74,342.94 83.37,346.57 C89.07,352.27 89.40,357.83 84.33,363.15 C82.19,365.40 81.36,365.68 78.84,364.95 C74.58,363.73 71.87,365.35 68.32,371.25 C65.43,376.05 65.33,376.55 66.62,379.64 C68.33,383.73 68.40,386.18 66.39,389.18 C66.66,388.47 66.38,387.95 65.67,387.14 C64.27,385.53 63.81,384.29 62.57,378.75 C62.01,376.23 61.57,376.00 57.23,375.98 C53.81,375.97 52.91,375.70 54.00,375.00 C55.17,374.24 54.91,374.03 52.81,374.02 C49.75,374.00 47.00,377.17 47.00,380.72 C47.00,381.98 46.55,383.00 46.00,383.00 C45.45,383.00 45.00,383.70 45.00,384.56 C45.00,385.42 45.45,385.84 46.00,385.50 C46.95,384.91 47.45,386.96 47.05,389.85 C46.97,390.42 47.33,391.38 47.90,392.23 C43.81,387.43 43.81,381.37 47.92,376.77 C50.44,373.95 51.49,373.50 55.57,373.50 C60.18,373.50 60.41,373.36 63.81,368.23 C67.19,363.13 67.27,362.83 65.99,358.98 C64.19,353.53 65.93,347.60 69.95,345.53 C73.20,343.85 73.84,342.60 73.19,339.20 C72.72,336.78 71.20,336.61 66.75,338.48 C65.27,339.10 65.03,338.28 65.00,327.47 C65.05,330.01 65.48,331.00 66.50,331.00 C67.32,331.00 68.00,331.42 68.00,331.94 C68.00,332.46 68.83,332.73 69.84,332.53 C70.84,332.34 72.31,332.59 73.09,333.09 C75.12,334.40 77.42,333.75 77.80,331.77 ZM 126.42 382.53 C126.05,381.06 123.81,378.80 120.81,376.88 C114.28,372.69 113.04,371.37 113.49,369.08 C113.75,367.71 113.05,366.38 111.82,365.39 C114.26,366.90 117.11,368.68 120.44,370.75 L 128.88 376.00 L 132.19 374.07 C135.07,372.39 135.89,372.30 138.50,373.42 C140.15,374.12 142.12,375.85 142.88,377.27 C145.24,381.68 143.67,384.45 136.59,388.41 C133.06,390.39 129.80,391.97 129.34,391.93 C127.97,391.82 125.76,390.67 121.27,387.75 C118.94,386.24 116.81,385.00 116.54,385.00 C116.26,385.00 113.44,383.36 110.27,381.35 C106.42,378.92 103.17,376.82 100.51,375.05 C104.62,377.66 106.90,378.60 107.80,378.09 C110.25,376.72 112.93,378.05 114.54,381.44 C115.37,383.20 117.68,385.56 119.65,386.69 C123.18,388.71 123.29,388.71 125.14,386.86 C126.44,385.56 126.84,384.20 126.42,382.53 ZM 50.82 344.06 C50.66,342.21 50.40,341.00 50.10,341.00 C49.61,341.00 48.93,333.91 48.59,325.25 C47.49,297.45 47.18,295.17 44.34,293.30 C42.47,292.08 41.18,291.90 39.17,292.61 L 36.50 293.55 L 36.38 316.24 L 36.50 279.50 L 39.50 279.21 C43.59,278.81 45.26,280.50 47.46,287.25 C48.48,290.41 49.70,293.00 50.16,293.00 C51.02,293.00 51.20,323.88 50.82,344.06 ZM 102.82 340.15 C102.64,341.91 101.94,343.53 101.27,343.75 C99.88,344.20 94.30,338.52 93.43,335.77 C93.12,334.80 92.45,334.00 91.93,334.00 C90.40,334.00 90.87,328.26 92.45,327.66 C93.45,327.28 94.31,328.22 95.18,330.63 C96.08,333.10 97.47,334.59 99.80,335.56 C102.72,336.78 103.09,337.35 102.82,340.15 ZM 82.37 358.75 C81.59,357.24 80.26,356.00 79.42,356.00 C78.57,356.00 78.16,355.55 78.51,354.99 C79.42,353.51 78.16,350.27 76.39,349.60 C74.74,348.96 70.46,350.79 71.39,351.72 C71.70,352.03 72.65,351.71 73.50,351.00 C74.81,349.91 74.94,349.98 74.37,351.48 C73.93,352.63 74.29,353.58 75.40,354.20 C76.71,354.93 76.84,355.48 75.99,356.51 C74.43,358.40 77.99,361.85 81.30,361.65 C83.69,361.51 83.73,361.39 82.37,358.75 ZM 110.46 364.55 C109.33,364.01 107.98,363.73 106.59,363.82 C104.61,363.95 102.77,363.43 102.02,362.52 C100.61,360.83 96.00,360.43 96.00,362.00 C96.00,362.55 95.34,363.00 94.54,363.00 C93.79,363.00 92.86,363.79 92.14,364.82 C93.87,361.62 97.04,357.01 97.73,357.07 C98.31,357.13 100.71,358.51 110.46,364.55 ZM 63.56 392.58 C58.57,397.62 53.81,397.98 49.25,393.66 C50.46,394.48 52.23,394.60 56.29,394.35 C60.31,394.11 62.07,393.75 63.56,392.58 ZM 68.93 370.13 C70.15,367.84 69.17,366.61 67.34,368.13 C66.33,368.97 65.99,368.91 65.97,367.87 C65.95,366.95 65.45,367.14 64.47,368.44 C63.32,369.97 63.27,370.55 64.25,371.18 C66.29,372.47 67.87,372.12 68.93,370.13 ZM 47.48 359.58 C49.14,357.98 50.01,357.07 50.48,355.73 C50.33,358.75 50.16,360.70 49.96,361.07 C49.13,362.62 47.84,363.00 43.44,363.00 C42.80,363.00 42.24,362.99 41.73,362.98 C43.50,362.63 45.52,361.49 47.48,359.58 ZM 38.43 362.47 C37.76,362.14 37.42,361.61 37.10,360.77 C37.41,361.52 37.87,362.09 38.43,362.47 ZM 91.07 367.15 C91.04,367.32 91.02,367.48 91.01,367.63 C91.00,367.61 91.00,367.58 91.00,367.56 C91.00,367.46 91.03,367.32 91.07,367.15 Z" fill="rgb(99,169,141)"/>
<path d="M 109.00 339.64 C104.88,342.00 101.28,343.93 101.00,343.92 C99.67,343.89 93.29,339.98 91.70,338.22 C90.28,336.65 89.96,334.88 90.20,329.88 C90.55,322.53 92.02,321.46 96.97,324.98 C99.37,326.69 100.69,326.95 103.72,326.35 C105.80,325.93 107.95,325.73 108.50,325.90 C109.05,326.07 110.51,326.22 111.75,326.23 C113.24,326.24 114.00,326.86 114.00,328.04 C114.00,329.03 114.44,329.98 114.97,330.17 C115.50,330.35 116.07,331.59 116.22,332.92 C116.46,334.99 115.40,335.97 109.00,339.64 ZM 51.01 320.91 C50.99,306.16 50.72,293.00 50.16,293.00 C49.70,293.00 48.48,290.41 47.46,287.25 C45.26,280.50 43.59,278.81 39.50,279.21 L 36.68 279.48 C36.83,278.08 36.90,277.15 37.24,276.32 C38.04,274.39 40.37,273.09 49.00,267.79 C54.35,264.51 56.58,264.29 57.29,266.99 C57.57,268.08 58.98,269.42 60.40,269.96 C65.28,271.82 63.26,276.12 55.50,280.37 L 51.50 282.56 ZM 79.85 329.92 C79.72,328.03 79.45,327.00 79.05,327.00 C78.47,327.00 77.99,325.54 77.98,323.75 C77.96,319.07 75.88,313.88 72.87,311.00 C70.03,308.28 68.00,307.44 68.00,308.97 C68.00,309.50 67.32,309.68 66.50,309.36 C65.28,308.90 65.03,310.65 65.00,321.76 C65.00,320.47 65.00,319.09 65.00,317.61 C65.00,299.07 65.21,296.00 66.50,296.00 C67.37,296.00 68.03,295.05 68.07,293.75 C68.14,291.60 68.18,291.59 69.00,293.50 C69.60,294.89 69.90,295.04 70.00,294.00 C70.10,292.96 70.40,293.11 71.00,294.50 C71.77,296.29 71.87,296.31 71.93,294.69 C71.97,293.70 72.42,293.14 72.93,293.46 C73.44,293.77 74.15,293.56 74.51,292.98 C74.90,292.36 75.98,292.97 77.19,294.51 C79.05,296.88 79.25,298.88 79.66,320.20 ZM 130.42 359.39 C127.81,360.39 126.40,360.10 123.73,358.00 C122.33,356.90 120.81,355.99 120.34,355.97 C118.59,355.90 115.00,352.10 115.02,350.34 C115.04,347.33 116.49,345.91 120.10,345.34 C121.97,345.05 125.10,344.26 127.06,343.59 C131.04,342.22 131.32,342.39 134.69,348.16 L 136.82 351.82 L 134.41 354.08 C133.09,355.33 132.00,356.90 132.00,357.57 C132.00,358.24 131.29,359.06 130.42,359.39 ZM 136.84 388.31 C134.21,389.76 131.73,391.01 130.37,391.59 C131.69,391.03 134.08,389.82 136.59,388.41 C143.67,384.45 145.24,381.68 142.88,377.27 C142.12,375.85 140.15,374.12 138.50,373.42 C136.34,372.49 135.40,372.39 133.51,373.34 L 135.81 372.04 C139.64,369.87 144.46,366.95 146.53,365.55 C150.73,362.70 152.00,362.40 152.00,364.28 C152.00,366.06 159.01,373.11 160.11,372.43 C160.60,372.13 161.00,372.31 161.00,372.83 C161.00,373.92 156.57,377.00 154.99,377.00 C154.40,377.00 151.57,378.71 148.71,380.81 C145.84,382.90 140.50,386.28 136.84,388.31 ZM 102.82 340.15 C103.09,337.35 102.72,336.78 99.80,335.56 C97.47,334.59 96.08,333.10 95.18,330.63 C94.31,328.22 93.45,327.28 92.45,327.66 C90.87,328.26 90.40,334.00 91.93,334.00 C92.45,334.00 93.12,334.80 93.43,335.77 C94.30,338.52 99.88,344.20 101.27,343.75 C101.94,343.53 102.64,341.91 102.82,340.15 ZM 197.27 303.46 C192.68,306.58 189.06,306.84 189.27,304.04 C189.35,302.97 189.62,302.29 189.87,302.53 C190.11,302.78 190.84,302.55 191.49,302.01 C192.13,301.48 193.62,300.89 194.80,300.71 C195.98,300.53 197.26,300.07 197.64,299.69 C198.67,298.67 201.00,298.85 201.00,299.96 C201.00,300.49 199.32,302.07 197.27,303.46 ZM 71.30 367.11 C73.60,364.64 75.83,364.09 78.84,364.95 C80.36,365.39 81.27,365.46 82.22,364.96 C79.86,366.88 78.67,367.11 75.49,366.75 C73.31,366.51 72.26,366.41 71.30,367.11 ZM 175.99 272.64 C175.98,274.03 171.09,275.95 170.40,274.84 C169.62,273.58 169.95,273.30 173.25,272.47 C174.76,272.09 176.00,272.17 175.99,272.64 ZM 36.49 282.18 L 36.38 316.24 L 36.33 325.92 C36.31,329.95 36.31,333.87 36.33,337.54 C36.08,317.74 36.09,291.12 36.49,282.18 ZM 87.90 355.46 C87.89,352.54 86.38,349.58 83.37,346.57 L 83.50 346.70 C85.37,348.57 87.19,351.01 87.54,352.13 C87.88,353.19 87.99,354.31 87.90,355.46 ZM 80.08 341.87 C79.78,340.45 79.83,338.49 79.91,334.96 C79.92,334.66 79.93,334.37 79.93,334.09 ZM 49.69 361.75 C49.54,361.99 49.18,362.20 48.65,362.38 C49.15,362.14 49.50,361.81 49.78,361.37 C49.75,361.58 49.72,361.70 49.69,361.75 ZM 130.99 374.77 L 128.88 376.00 L 128.85 375.99 ZM 37.08 360.71 C37.09,360.73 37.10,360.75 37.10,360.77 C37.17,360.94 37.23,361.09 37.30,361.24 C37.23,361.08 37.16,360.91 37.09,360.73 C37.08,360.72 37.08,360.71 37.08,360.71 ZM 41.73 362.98 L 41.73 362.98 C42.23,362.99 42.79,363.00 43.42,363.00 C42.79,363.00 42.23,362.99 41.73,362.98 ZM 38.43 362.47 L 38.44 362.48 C38.29,362.40 38.16,362.32 38.05,362.23 C38.16,362.32 38.29,362.40 38.43,362.47 Z" fill="rgb(115,181,153)"/>
<path d="M 178.25 260.05 C176.63,264.17 175.11,265.30 172.97,263.98 C171.85,263.29 171.85,262.49 172.96,259.11 C174.12,255.60 174.08,254.50 172.65,250.75 C171.74,248.38 171.00,245.46 171.00,244.26 C171.00,233.84 184.81,230.30 191.74,238.95 C192.42,239.80 192.91,242.52 192.84,245.00 C192.66,250.77 189.37,254.59 183.75,255.54 C180.29,256.13 179.55,256.73 178.25,260.05 ZM 189.84 305.61 C188.65,305.27 187.37,304.58 185.82,303.52 C181.51,300.59 179.67,295.94 180.57,290.27 C181.49,284.55 181.87,284.23 188.51,283.49 C193.79,282.90 194.91,283.11 198.00,285.20 C203.24,288.75 204.17,294.87 200.96,299.74 C200.67,298.83 198.59,298.74 197.64,299.69 C197.26,300.07 195.98,300.53 194.80,300.71 C193.62,300.89 192.13,301.48 191.49,302.01 C190.84,302.55 190.11,302.78 189.87,302.53 C189.62,302.29 189.35,302.97 189.27,304.04 C189.22,304.78 189.42,305.30 189.84,305.61 ZM 156.92 282.75 C156.22,284.57 155.32,284.98 152.27,284.88 C150.20,284.82 147.60,284.55 146.50,284.28 C143.88,283.64 140.90,280.97 141.58,279.87 C141.88,279.39 141.64,279.00 141.06,279.00 C138.86,279.00 140.13,274.87 143.38,271.42 C147.82,266.72 153.73,265.68 158.02,268.86 C159.62,270.04 161.61,271.00 162.46,271.00 C163.31,271.00 164.00,271.41 164.00,271.92 C164.00,272.42 164.27,273.55 164.61,274.42 C164.94,275.29 164.72,276.00 164.11,276.00 C162.41,276.00 157.88,280.25 156.92,282.75 ZM 62.72 274.20 C63.54,272.39 62.81,270.88 60.40,269.96 C58.98,269.42 57.57,268.08 57.29,266.99 C56.97,265.78 56.35,265.16 55.28,265.13 C58.86,264.14 62.99,263.37 64.88,263.51 C66.40,263.62 67.57,262.80 68.52,260.96 C69.29,259.46 70.51,258.02 71.21,257.75 C73.21,256.99 77.00,258.76 77.00,260.45 C77.00,262.08 69.66,266.32 68.62,265.29 C68.28,264.95 68.00,265.44 68.00,266.38 C68.00,267.32 66.99,269.11 65.75,270.36 C64.76,271.36 63.54,272.92 62.72,274.20 ZM 113.94 336.61 C115.98,335.15 116.38,334.27 116.22,332.92 C116.07,331.59 115.50,330.35 114.97,330.17 C114.44,329.98 114.00,329.03 114.00,328.04 C114.00,326.86 113.24,326.24 111.75,326.23 C110.51,326.22 109.05,326.07 108.50,325.90 C107.95,325.73 105.80,325.93 103.72,326.35 C103.63,326.37 103.53,326.39 103.43,326.40 C106.94,325.60 109.98,324.06 111.48,322.31 C112.04,321.66 114.75,321.00 117.50,320.85 L 122.50 320.57 L 122.61 325.28 C122.72,329.64 122.43,330.23 118.61,333.30 C117.52,334.19 115.82,335.38 113.94,336.61 ZM 79.49 312.32 C79.16,298.31 78.79,296.55 77.19,294.51 C75.98,292.97 74.90,292.36 74.51,292.98 C74.15,293.56 73.44,293.77 72.93,293.46 C72.42,293.14 71.97,293.70 71.93,294.69 C71.87,296.31 71.77,296.29 71.00,294.50 C70.40,293.11 70.10,292.96 70.00,294.00 C69.90,295.04 69.60,294.89 69.00,293.50 C68.75,292.92 68.57,292.52 68.45,292.30 C68.47,292.20 68.48,292.09 68.50,291.99 C69.62,285.37 74.73,284.07 80.33,288.98 C83.08,291.40 83.63,292.50 83.21,294.73 C82.92,296.26 81.90,298.06 80.95,298.74 C79.65,299.65 79.34,301.15 79.49,312.32 ZM 134.92 356.85 C133.55,357.62 132.42,358.24 131.45,358.70 C131.78,358.35 132.00,357.94 132.00,357.57 C132.00,356.90 133.09,355.33 134.41,354.08 L 136.82 351.82 L 134.69 348.16 C131.32,342.39 131.04,342.22 127.06,343.59 C125.10,344.26 121.97,345.05 120.10,345.34 C121.97,345.05 125.30,344.17 127.50,343.38 C130.11,342.44 131.14,342.04 132.21,341.89 C133.02,341.77 133.84,341.80 135.37,341.85 C135.62,341.86 135.89,341.87 136.18,341.88 C140.57,342.02 143.01,344.16 142.97,347.82 C142.92,351.49 141.42,353.18 134.92,356.85 ZM 156.73 376.44 C158.62,375.50 161.00,373.63 161.00,372.83 C161.00,372.31 160.60,372.13 160.11,372.43 C159.01,373.11 152.00,366.06 152.00,364.28 C152.00,363.55 151.81,363.15 151.33,363.10 C152.67,362.56 154.06,362.10 155.19,361.85 C158.78,361.04 159.58,361.20 161.68,363.17 C164.12,365.46 164.43,368.94 162.47,372.02 C161.63,373.35 158.78,375.45 156.73,376.44 ZM 175.50 272.17 C175.51,272.21 175.53,272.25 175.54,272.28 C175.05,272.18 174.21,272.23 173.25,272.47 C169.95,273.30 169.62,273.58 170.40,274.84 C170.49,274.99 170.66,275.08 170.87,275.13 C169.18,275.20 167.52,274.81 166.87,273.77 C165.89,272.22 169.70,269.00 172.50,269.00 C173.88,269.00 175.00,269.41 175.00,269.92 C175.00,270.42 175.23,271.44 175.50,272.17 ZM 130.99 374.77 L 128.85 375.99 L 128.83 375.97 L 136.66 371.43 C139.70,369.67 143.09,367.67 145.45,366.25 C143.07,367.79 139.08,370.19 135.81,372.04 L 133.51 373.34 C133.12,373.54 132.68,373.78 132.19,374.07 ZM 51.47 266.38 C50.73,266.76 49.91,267.23 49.00,267.79 C46.83,269.13 45.05,270.21 43.60,271.11 C45.20,270.07 47.20,268.82 49.69,267.24 C50.12,266.96 50.73,266.68 51.47,266.38 ZM 54.60 280.87 L 55.50 280.37 C58.76,278.58 61.01,276.79 62.15,275.17 C61.37,276.53 58.74,278.68 56.21,280.01 ZM 68.07 293.83 C68.00,295.09 67.35,296.00 66.50,296.00 C66.18,296.00 65.93,296.19 65.73,296.75 C65.91,296.20 66.14,296.00 66.41,296.00 C67.04,296.00 67.63,295.20 68.07,293.83 ZM 100.96 343.92 C100.90,343.95 100.85,343.96 100.84,343.96 C100.13,343.86 98.19,342.82 96.25,341.59 C98.24,342.83 100.24,343.87 100.96,343.92 ZM 80.08 341.87 L 79.93 334.09 C79.93,334.00 79.93,333.92 79.93,333.84 L 80.11 342.00 C80.10,341.96 80.09,341.91 80.08,341.87 ZM 36.49 282.18 C36.18,289.08 36.10,306.49 36.20,323.18 C36.10,306.36 36.18,288.80 36.49,282.05 ZM 197.12 303.56 C195.49,304.68 194.15,305.38 192.90,305.69 C194.13,305.31 195.60,304.59 197.18,303.52 C197.16,303.54 197.14,303.55 197.12,303.56 ZM 109.00 339.64 C109.46,339.37 109.90,339.12 110.31,338.88 C109.46,339.39 108.62,339.88 107.84,340.31 C107.56,340.47 107.29,340.62 107.02,340.77 C107.65,340.41 108.32,340.03 109.00,339.64 ZM 125.35 359.14 C124.85,358.85 124.32,358.47 123.73,358.00 C124.32,358.47 124.85,358.85 125.35,359.14 ZM 36.78 278.60 C36.75,278.87 36.72,279.16 36.68,279.48 L 36.68 279.48 C36.72,279.16 36.75,278.87 36.78,278.60 Z" fill="rgb(118,194,163)"/>
<path d="M 570.00 576.48 C570.00,577.11 569.44,578.38 568.75,579.30 C567.63,580.81 567.25,580.55 565.18,576.93 C563.91,574.70 560.83,571.58 558.35,570.01 L 553.83 567.14 L 556.77 565.62 C559.56,564.18 564.35,559.26 566.50,555.62 C567.36,554.16 567.99,554.60 571.00,558.71 C572.92,561.35 575.95,564.17 577.73,565.00 C579.50,565.83 580.97,566.83 580.98,567.22 C580.99,567.62 579.54,568.69 577.75,569.59 C573.77,571.60 570.00,574.96 570.00,576.48 ZM 175.99 272.64 C175.99,272.47 175.83,272.35 175.54,272.28 C175.53,272.25 175.51,272.21 175.50,272.17 C175.33,271.72 175.18,271.17 175.09,270.69 C175.44,271.18 175.78,271.79 176.14,272.56 C177.67,275.83 177.66,276.11 176.04,276.98 C174.85,277.62 173.62,277.42 172.09,276.35 C169.18,274.31 164.15,275.40 160.57,278.13 C161.93,276.91 163.33,276.00 164.11,276.00 C164.72,276.00 164.94,275.29 164.61,274.42 C164.27,273.55 164.00,272.42 164.00,271.92 C164.00,271.75 163.92,271.59 163.79,271.46 C165.29,271.79 166.64,271.83 167.54,271.52 C166.83,272.33 166.49,273.17 166.87,273.77 C167.52,274.81 169.18,275.20 170.87,275.13 C172.30,275.45 175.98,273.84 175.99,272.64 ZM 130.53 342.24 C131.34,341.79 132.99,341.69 134.81,341.84 C133.63,341.80 132.91,341.79 132.21,341.89 C131.14,342.04 130.11,342.44 127.50,343.38 C125.30,344.17 121.97,345.05 120.10,345.34 C116.49,345.91 115.04,347.33 115.02,350.34 C115.01,351.34 116.16,352.99 117.47,354.25 C114.84,352.62 112.00,350.47 112.00,349.93 C112.00,349.45 114.52,347.45 117.61,345.47 C121.98,342.68 123.84,342.03 126.07,342.52 C127.64,342.86 129.65,342.74 130.53,342.24 ZM 68.07 293.83 C67.63,295.20 67.04,296.00 66.41,296.00 C66.14,296.00 65.91,296.20 65.73,296.75 C65.13,298.42 65.01,303.41 65.00,316.66 C65.00,316.17 65.00,315.66 65.00,315.14 L 65.00 291.07 L 68.73 288.54 C69.40,288.08 70.02,287.70 70.61,287.37 C69.59,288.37 68.85,289.92 68.50,291.99 C68.48,292.09 68.47,292.20 68.45,292.30 C68.15,291.79 68.12,292.25 68.07,293.75 C68.07,293.78 68.07,293.81 68.07,293.83 ZM 188.27 283.52 C182.04,284.21 181.50,284.60 180.65,289.82 C180.71,288.43 180.41,287.02 179.81,286.05 C178.71,284.28 178.74,283.79 179.97,283.03 C180.86,282.47 181.89,282.49 182.60,283.08 C183.18,283.56 185.61,283.74 188.27,283.52 ZM 62.72 274.20 C63.54,272.92 64.76,271.36 65.75,270.36 C66.21,269.90 66.63,269.36 66.99,268.82 C66.71,269.30 66.39,269.78 66.05,270.21 C64.67,271.96 64.41,273.01 65.15,273.75 C66.28,274.88 65.98,275.09 56.50,279.94 L 53.21 281.63 L 54.60 280.87 L 56.21 280.01 C58.74,278.68 61.37,276.53 62.15,275.17 C62.39,274.84 62.58,274.51 62.72,274.20 ZM 168.64 270.51 C169.05,269.63 170.38,269.01 171.86,269.03 C171.90,269.03 171.94,269.03 171.98,269.04 C170.85,269.18 169.62,269.77 168.64,270.51 ZM 181.43 298.38 C180.37,296.14 179.98,293.64 180.44,291.30 C180.17,293.92 180.51,296.31 181.43,298.38 ZM 142.82 346.26 C142.53,344.95 141.84,343.92 140.79,343.18 C141.42,343.46 141.88,343.78 142.09,344.11 C142.45,344.68 142.69,345.43 142.82,346.26 ZM 140.17 353.47 C141.31,352.53 142.03,351.65 142.45,350.68 C142.26,351.23 142.01,351.71 141.72,352.10 C141.47,352.42 140.92,352.90 140.17,353.47 ZM 162.02 270.94 C161.04,270.72 159.39,269.87 158.02,268.86 C156.21,267.52 154.10,266.92 151.94,267.05 C154.08,266.92 156.16,267.48 157.93,268.79 C159.17,269.71 160.61,270.44 162.02,270.94 ZM 75.74 286.28 C77.18,286.59 78.62,287.49 80.33,288.98 C78.73,287.58 77.18,286.69 75.74,286.28 ZM 125.35 359.14 C125.64,359.31 125.92,359.45 126.19,359.57 C125.47,359.29 124.74,358.82 123.88,358.15 C123.18,357.60 122.42,357.06 121.78,356.64 C122.37,357.00 123.06,357.48 123.73,358.00 C124.32,358.47 124.85,358.85 125.35,359.14 ZM 190.12 283.33 C193.94,282.95 195.22,283.31 198.00,285.19 C199.57,286.26 200.75,287.55 201.56,288.98 C200.75,287.56 199.57,286.26 198.00,285.20 C195.25,283.34 194.06,282.97 190.12,283.33 Z" fill="rgb(134,173,157)"/>
<path d="M 118.00 333.78 C118.22,333.61 118.43,333.45 118.61,333.30 C122.43,330.23 122.72,329.64 122.61,325.28 L 122.50 320.57 L 117.50 320.85 C114.75,321.00 112.04,321.66 111.48,322.31 C109.98,324.06 106.94,325.60 103.43,326.40 C103.33,326.42 103.24,326.44 103.14,326.46 C103.55,326.23 103.94,325.92 104.33,325.53 C105.14,324.71 108.52,322.46 111.85,320.51 C120.31,315.55 120.99,314.68 121.08,308.68 C121.15,304.07 121.27,303.80 122.15,306.20 C122.69,307.69 123.89,309.15 124.82,309.45 C125.74,309.75 127.97,311.37 129.76,313.06 C132.42,315.56 133.13,315.83 133.62,314.56 C134.86,311.31 136.00,313.20 136.00,318.52 C136.00,323.59 135.77,324.14 133.25,325.23 C131.74,325.88 128.83,327.69 126.79,329.25 C124.76,330.82 122.10,332.29 120.89,332.52 C120.10,332.67 118.99,333.17 118.00,333.78 ZM 134.92 356.85 C137.26,355.53 138.95,354.46 140.17,353.47 C140.92,352.90 141.47,352.42 141.72,352.10 C142.01,351.71 142.26,351.23 142.45,350.68 C142.81,349.83 142.96,348.92 142.97,347.82 C142.97,347.26 142.92,346.74 142.82,346.26 C142.69,345.43 142.45,344.68 142.09,344.11 C141.88,343.78 141.42,343.46 140.79,343.18 C139.65,342.39 138.10,341.94 136.18,341.88 C135.89,341.87 135.62,341.86 135.37,341.85 C135.17,341.85 134.98,341.84 134.81,341.84 C132.99,341.69 131.34,341.79 130.53,342.24 C129.81,342.65 128.33,342.80 126.96,342.66 C128.97,342.83 130.95,341.90 135.76,338.73 C145.88,332.07 150.97,329.62 149.40,332.15 C148.97,332.87 149.13,333.04 149.83,332.60 C150.46,332.22 151.96,332.82 153.18,333.95 C154.39,335.08 155.77,336.00 156.25,336.00 C156.73,336.00 156.84,336.45 156.50,337.00 C156.16,337.55 156.61,338.00 157.50,338.00 C158.39,338.00 158.86,338.42 158.54,338.93 C158.23,339.44 158.99,340.00 160.24,340.18 C162.00,340.43 160.16,341.94 152.00,346.96 C146.23,350.51 138.71,354.90 135.31,356.71 C134.46,357.16 133.69,357.56 133.00,357.91 C133.59,357.60 134.22,357.24 134.92,356.85 ZM 158.36 375.52 C160.07,374.45 161.84,373.02 162.47,372.02 C164.43,368.94 164.12,365.46 161.68,363.17 C159.58,361.20 158.78,361.04 155.19,361.85 C154.06,362.10 152.67,362.56 151.33,363.10 C150.98,363.06 150.48,363.21 149.77,363.55 C158.82,357.84 171.90,350.00 172.40,350.00 C172.69,350.00 172.74,350.56 172.49,351.25 C171.96,352.75 177.25,358.79 179.98,359.80 C181.07,360.20 181.61,360.99 181.21,361.61 C180.21,363.16 165.42,371.98 158.36,375.52 ZM 75.74 286.28 C74.50,285.92 73.35,285.93 72.35,286.28 L 74.00 285.24 C85.73,277.91 92.06,274.68 91.42,276.36 C90.78,278.03 95.36,283.66 98.04,284.51 C101.66,285.66 99.99,287.47 89.72,293.53 L 81.14 298.58 C82.04,297.81 82.94,296.15 83.21,294.73 C83.63,292.50 83.08,291.40 80.33,288.98 C78.62,287.49 77.18,286.59 75.74,286.28 ZM 51.47 266.38 C51.33,266.44 51.19,266.49 51.06,266.55 C52.47,265.67 53.65,264.92 54.35,264.47 C70.59,253.97 74.91,251.80 77.67,252.72 C79.39,253.30 81.48,255.40 83.16,258.26 L 85.87 262.88 L 81.18 265.81 C76.07,269.02 69.68,272.78 64.26,275.81 C65.97,274.74 65.79,274.39 65.15,273.75 C64.41,273.01 64.67,271.96 66.05,270.21 C66.39,269.78 66.71,269.30 66.99,268.82 C67.60,267.90 68.00,266.97 68.00,266.38 C68.00,265.44 68.28,264.95 68.62,265.29 C69.66,266.32 77.00,262.08 77.00,260.45 C77.00,258.76 73.21,256.99 71.21,257.75 C70.51,258.02 69.29,259.46 68.52,260.96 C67.57,262.80 66.40,263.62 64.88,263.51 C62.99,263.37 58.86,264.14 55.28,265.13 C54.37,265.11 53.13,265.52 51.47,266.38 ZM 156.92 282.75 C157.44,281.40 158.98,279.56 160.57,278.13 C161.15,277.69 161.76,277.29 162.40,276.94 C161.97,277.44 161.70,278.09 161.51,278.96 C160.82,282.09 155.59,287.45 152.23,288.46 C150.99,288.84 148.40,288.63 146.49,288.00 C143.45,286.99 142.64,287.12 140.01,288.99 C138.36,290.17 136.73,292.23 136.39,293.57 C135.55,296.92 134.70,296.62 132.75,292.31 L 131.08 288.63 L 135.04 285.24 C138.61,282.18 139.00,281.38 139.00,277.14 C139.00,271.82 140.77,268.69 145.01,266.49 C149.55,264.15 153.32,264.63 157.11,268.04 C157.55,268.43 157.95,268.77 158.32,269.07 C158.19,268.98 158.06,268.88 157.93,268.79 C156.16,267.48 154.08,266.92 151.94,267.05 C148.99,267.21 145.94,268.71 143.38,271.42 C140.13,274.87 138.86,279.00 141.06,279.00 C141.64,279.00 141.88,279.39 141.58,279.87 C140.90,280.97 143.88,283.64 146.50,284.28 C147.60,284.55 150.20,284.82 152.27,284.88 C155.32,284.98 156.22,284.57 156.92,282.75 ZM 165.00 306.00 C165.00,315.35 164.61,323.00 164.13,323.00 C163.65,323.00 163.04,320.86 162.77,318.25 C162.30,313.55 157.10,301.11 154.22,297.77 C153.40,296.82 152.23,296.28 151.62,296.56 C150.39,297.12 152.06,295.94 158.37,291.77 C160.64,290.27 163.06,289.03 163.75,289.02 C164.70,289.00 165.00,293.06 165.00,306.00 ZM 132.99 258.25 C133.00,260.77 132.68,261.00 129.15,261.00 C124.49,261.00 122.00,258.62 122.00,254.17 C122.00,250.31 123.54,250.11 129.04,253.25 C132.13,255.01 132.99,256.10 132.99,258.25 ZM 193.00 338.50 C193.00,344.83 192.60,349.00 192.00,349.00 C191.41,349.00 190.97,345.04 190.93,339.25 C190.88,332.87 190.56,330.19 190.00,331.50 C189.53,332.60 189.11,332.97 189.07,332.32 C189.03,331.67 188.29,330.44 187.43,329.57 C186.00,328.14 186.18,328.00 189.43,328.00 L 193.00 328.00 ZM 184.82 283.57 C183.72,283.50 182.90,283.34 182.60,283.08 C181.89,282.49 180.86,282.47 179.97,283.03 C178.74,283.79 178.71,284.28 179.81,286.05 C180.28,286.81 180.56,287.82 180.64,288.89 C180.50,287.07 179.35,285.40 175.93,281.25 C173.13,277.86 171.71,276.20 170.26,275.53 C170.93,275.70 171.55,275.97 172.09,276.35 C173.62,277.42 174.85,277.62 176.04,276.98 C177.66,276.11 177.67,275.83 176.14,272.56 C176.12,272.52 176.10,272.49 176.09,272.46 C177.00,273.95 178.43,275.93 180.04,277.86 ZM 178.25 260.05 C179.53,256.79 180.26,256.15 183.56,255.57 C179.75,256.53 179.35,257.01 177.31,262.54 C176.10,265.82 175.09,269.25 175.06,270.16 C175.05,270.35 175.14,270.63 175.30,271.00 C175.23,270.89 175.16,270.79 175.09,270.69 C175.03,270.39 175.00,270.11 175.00,269.92 C175.00,269.41 173.88,269.00 172.50,269.00 C172.33,269.00 172.15,269.01 171.98,269.04 C171.94,269.03 171.90,269.03 171.86,269.03 C170.38,269.01 169.05,269.63 168.64,270.51 C168.22,270.82 167.84,271.17 167.54,271.52 C166.64,271.83 165.29,271.79 163.79,271.46 C163.52,271.18 163.02,271.00 162.46,271.00 C162.34,271.00 162.19,270.98 162.02,270.94 C161.71,270.83 161.39,270.70 161.07,270.57 C161.89,270.77 162.75,270.75 163.84,270.59 C168.46,269.91 169.41,268.87 172.02,261.73 C174.21,255.72 174.23,255.34 172.65,250.87 C172.12,249.38 171.73,248.12 171.47,247.00 C171.77,248.19 172.19,249.54 172.65,250.75 C174.08,254.50 174.12,255.60 172.96,259.11 C171.85,262.49 171.85,263.29 172.97,263.98 C175.11,265.30 176.63,264.17 178.25,260.05 ZM 115.14 291.09 C112.27,293.41 110.64,293.50 108.57,291.43 C106.43,289.29 106.60,288.91 109.24,289.89 C110.76,290.46 112.23,290.24 113.78,289.23 C116.92,287.17 118.06,288.72 115.14,291.09 ZM 115.00 246.07 C115.00,247.82 113.22,247.00 109.36,243.49 C106.95,241.29 106.25,240.23 107.50,240.65 C110.36,241.62 115.00,244.97 115.00,246.07 ZM 124.00 284.06 C124.00,285.89 122.03,285.93 121.07,284.13 C120.18,282.48 120.32,282.27 122.02,282.71 C123.11,283.00 124.00,283.60 124.00,284.06 ZM 79.85 329.92 L 79.66 320.20 C79.60,317.21 79.55,314.60 79.49,312.32 C79.43,308.03 79.44,305.17 79.55,303.22 L 79.80 321.43 L 80.06 339.68 L 79.93 333.84 C79.95,332.29 79.92,330.97 79.85,329.92 ZM 173.25 237.84 C175.61,234.72 179.77,233.52 183.80,234.24 C179.78,233.58 175.69,234.93 173.25,237.84 ZM 107.84 340.34 C107.02,340.79 106.22,341.22 105.48,341.62 C105.97,341.35 106.48,341.07 107.02,340.77 C107.29,340.62 107.56,340.47 107.84,340.31 C108.62,339.88 109.46,339.39 110.31,338.88 C111.88,337.97 113.06,337.24 113.94,336.61 C114.89,335.99 115.80,335.37 116.61,334.80 L 116.59 334.81 C115.44,335.84 111.50,338.33 107.84,340.34 ZM 192.78 245.91 C192.58,248.99 191.56,251.25 189.55,252.89 C191.40,251.21 192.52,248.84 192.78,245.91 ZM 68.66 288.58 L 65.50 290.73 L 65.50 290.56 ZM 52.98 281.75 L 53.21 281.63 L 56.50 279.94 C57.98,279.18 59.24,278.54 60.30,277.99 C59.09,278.64 57.98,279.22 57.00,279.72 ZM 145.95 365.93 C145.79,366.03 145.63,366.14 145.45,366.25 C144.03,367.11 142.25,368.17 140.39,369.26 C142.36,368.10 144.32,366.92 145.95,365.93 ZM 190.12 283.33 C190.01,283.33 189.90,283.34 189.79,283.35 C191.51,283.16 192.75,283.11 193.85,283.29 C192.85,283.14 191.70,283.17 190.12,283.33 ZM 180.48 290.81 C180.50,290.70 180.52,290.59 180.54,290.49 C180.50,290.76 180.46,291.03 180.44,291.30 C180.39,291.53 180.35,291.77 180.32,292.00 C180.36,291.61 180.41,291.21 180.48,290.81 ZM 126.42 359.66 C125.62,359.41 124.85,358.90 123.88,358.15 C124.74,358.82 125.47,359.29 126.19,359.57 C126.26,359.60 126.34,359.63 126.42,359.66 ZM 180.56 290.34 C180.63,289.86 180.66,289.42 180.64,288.99 C180.66,289.26 180.66,289.54 180.65,289.82 C180.62,289.96 180.60,290.12 180.57,290.27 C180.57,290.30 180.56,290.32 180.56,290.34 ZM 198.00 285.19 C198.61,285.61 199.17,286.06 199.66,286.54 C199.17,286.06 198.61,285.61 198.00,285.19 C197.84,285.08 197.69,284.98 197.53,284.88 C197.69,284.98 197.84,285.08 198.00,285.19 ZM 97.74 325.50 C97.49,325.34 97.24,325.17 96.97,324.98 C97.23,325.16 97.49,325.34 97.74,325.50 ZM 70.63 287.35 L 70.61 287.37 C70.58,287.39 70.55,287.40 70.52,287.42 ZM 181.38 298.28 C181.40,298.31 181.41,298.35 181.43,298.38 C181.44,298.40 181.45,298.43 181.46,298.45 C181.43,298.39 181.41,298.33 181.38,298.28 ZM 100.96 343.92 C100.90,343.94 100.86,343.96 100.84,343.96 C100.86,343.96 100.90,343.94 100.96,343.92 L 100.96 343.92 Z" fill="rgb(139,200,173)"/>
<path d="M 84.04 264.02 L 85.87 262.88 L 83.16 258.26 C81.48,255.40 79.39,253.30 77.67,252.72 C76.04,252.18 73.88,252.71 69.06,255.38 C76.72,250.78 84.04,246.55 85.38,246.04 C86.82,245.50 88.00,244.66 88.00,244.18 C88.00,243.70 89.80,242.49 92.01,241.50 C94.21,240.50 96.51,239.09 97.13,238.35 C98.95,236.15 101.87,236.78 108.37,240.74 C111.74,242.80 116.11,245.39 118.07,246.49 C126.18,251.06 133.40,255.65 136.21,258.04 L 139.20 260.57 L 136.25 266.04 C134.63,269.04 132.67,271.62 131.90,271.77 C131.13,271.92 128.25,270.57 125.49,268.77 C122.74,266.97 116.10,262.86 110.74,259.64 L 100.99 253.77 L 95.25 257.25 C93.13,258.52 88.76,261.17 84.04,264.02 ZM 144.16 351.67 C146.79,350.12 149.55,348.46 152.00,346.96 C160.16,341.94 162.00,340.43 160.24,340.18 C158.99,340.00 158.23,339.44 158.54,338.93 C158.86,338.42 158.39,338.00 157.50,338.00 C156.61,338.00 156.16,337.55 156.50,337.00 C156.84,336.45 156.73,336.00 156.25,336.00 C155.77,336.00 154.39,335.08 153.18,333.95 C151.96,332.82 150.46,332.22 149.83,332.60 C149.13,333.04 148.97,332.87 149.40,332.15 C150.44,330.48 148.57,330.98 144.26,333.44 C146.01,332.21 147.16,331.15 147.89,329.87 C149.30,327.43 149.25,324.15 149.14,317.23 C149.12,316.02 149.10,314.69 149.08,313.24 L 148.91 297.09 L 153.21 294.91 C153.96,294.52 154.79,294.07 155.60,293.61 C151.58,296.29 150.60,297.03 151.62,296.56 C152.23,296.28 153.40,296.82 154.22,297.77 C157.10,301.11 162.30,313.55 162.77,318.25 C163.04,320.86 163.65,323.00 164.13,323.00 C164.36,323.00 164.57,321.26 164.72,318.41 L 164.50 339.31 L 154.00 345.78 C151.02,347.61 147.45,349.74 144.16,351.67 ZM 174.23 366.49 C177.93,364.20 180.79,362.26 181.21,361.61 C181.61,360.99 181.07,360.20 179.98,359.80 C177.25,358.79 171.96,352.75 172.49,351.25 C172.74,350.56 172.69,350.00 172.40,350.00 C171.90,350.00 158.82,357.84 149.77,363.55 C149.73,363.58 149.68,363.60 149.63,363.63 C152.89,361.54 157.75,358.52 166.00,353.44 C171.23,350.23 175.95,346.90 176.50,346.05 C177.05,345.20 177.73,340.45 178.00,335.50 L 178.50 326.50 L 192.50 326.50 L 192.54 328.00 L 189.43 328.00 C186.18,328.00 186.00,328.14 187.43,329.57 C188.29,330.44 189.03,331.67 189.07,332.32 C189.11,332.97 189.53,332.60 190.00,331.50 C190.56,330.19 190.88,332.87 190.93,339.25 C190.97,345.04 191.41,349.00 192.00,349.00 C192.45,349.00 192.79,346.63 192.93,342.75 C193.08,348.56 193.02,351.71 191.68,354.17 C190.01,357.22 186.34,359.19 178.60,363.87 C177.07,364.79 175.61,365.66 174.23,366.49 ZM 95.30 290.09 C100.47,286.70 100.86,285.41 98.04,284.51 C95.36,283.66 90.78,278.03 91.42,276.36 C91.81,275.33 89.60,276.14 85.15,278.59 C92.99,274.06 100.40,270.00 101.17,270.00 C103.86,270.00 124.00,282.22 124.00,283.85 C124.00,283.88 123.99,283.90 123.98,283.94 C123.84,283.50 123.01,282.97 122.02,282.71 C120.32,282.27 120.18,282.48 121.07,284.13 C121.46,284.87 122.03,285.29 122.55,285.42 C120.74,287.01 117.58,289.43 115.20,291.04 C118.04,288.70 116.90,287.18 113.78,289.23 C112.23,290.24 110.76,290.46 109.24,289.89 C106.60,288.91 106.43,289.29 108.57,291.43 C108.62,291.48 108.66,291.52 108.71,291.57 C107.83,291.15 106.88,290.64 105.95,290.07 L 100.86 286.93 ZM 136.00 294.86 L 136.00 318.52 C136.00,313.20 134.86,311.31 133.62,314.56 C133.13,315.83 132.42,315.56 129.76,313.06 C127.97,311.37 125.74,309.75 124.82,309.45 C123.89,309.15 122.69,307.69 122.15,306.20 C121.27,303.80 121.15,304.07 121.08,308.68 C121.03,312.06 120.79,313.81 119.08,315.59 C119.39,315.24 119.65,314.89 119.86,314.51 C121.00,312.53 121.00,309.90 121.00,304.61 L 121.00 295.03 L 124.75 292.52 C129.25,289.52 132.33,287.42 134.45,285.74 L 131.08 288.63 L 132.75 292.31 C134.40,295.96 135.26,296.73 136.00,294.86 ZM 132.99 258.25 C132.99,256.10 132.13,255.01 129.04,253.25 C123.54,250.11 122.00,250.31 122.00,254.17 C122.00,258.62 124.49,261.00 129.15,261.00 C132.68,261.00 133.00,260.77 132.99,258.25 ZM 115.00 246.07 C115.00,244.97 110.36,241.62 107.50,240.65 C106.25,240.23 106.95,241.29 109.36,243.49 C113.22,247.00 115.00,247.82 115.00,246.07 ZM 136.00 324.04 L 133.25 325.23 C135.77,324.14 136.00,323.59 136.00,318.52 ZM 160.13 290.67 C161.69,289.46 162.76,288.68 163.48,289.06 C162.82,289.22 161.54,289.85 160.13,290.67 ZM 139.00 277.04 C139.00,274.71 139.36,272.79 140.13,271.18 C139.36,272.81 139.00,274.75 139.00,277.14 C139.00,280.67 138.73,281.82 136.58,283.86 C138.73,281.68 138.99,280.03 139.00,277.14 C139.00,277.11 139.00,277.07 139.00,277.04 ZM 155.17 286.87 C157.01,285.52 158.90,283.59 160.14,281.77 C159.40,282.90 158.45,284.08 157.48,285.02 C156.72,285.76 155.95,286.37 155.17,286.87 ZM 137.75 291.17 C138.40,290.36 139.20,289.57 140.01,288.99 C140.27,288.81 140.51,288.64 140.74,288.49 C140.27,288.84 139.76,289.29 139.17,289.84 ZM 143.40 287.38 C144.23,287.33 145.14,287.55 146.49,288.00 C146.65,288.05 146.82,288.10 146.99,288.15 C146.33,288.02 145.64,287.85 144.92,287.63 C144.36,287.47 143.87,287.38 143.40,287.38 ZM 72.00 286.42 C73.62,285.42 75.47,284.29 77.43,283.12 C76.35,283.79 75.20,284.49 74.00,285.24 L 72.35 286.28 C72.23,286.32 72.11,286.37 72.00,286.42 ZM 80.55 299.08 C80.67,298.95 80.80,298.84 80.95,298.74 C81.01,298.69 81.07,298.64 81.14,298.58 L 83.74 297.05 ZM 126.46 342.59 C127.96,342.83 129.43,342.47 132.11,341.01 C129.75,342.36 128.36,342.78 126.96,342.66 C126.79,342.64 126.62,342.62 126.46,342.59 ZM 68.66 288.58 L 67.43 289.35 C68.31,288.75 69.51,287.97 70.93,287.08 C70.83,287.17 70.73,287.26 70.63,287.35 L 70.52 287.42 C69.96,287.74 69.36,288.11 68.73,288.54 ZM 175.93 281.25 C179.35,285.40 180.50,287.07 180.64,288.89 L 180.64 288.89 C180.64,288.92 180.64,288.96 180.64,288.99 L 180.64 288.99 C180.65,289.21 180.65,289.43 180.63,289.67 C180.74,287.41 179.80,285.97 175.91,281.25 C173.13,277.86 171.71,276.20 170.26,275.53 C171.71,276.20 173.13,277.86 175.93,281.25 ZM 183.80 301.84 C184.39,302.45 185.07,303.01 185.82,303.52 C186.36,303.89 186.87,304.22 187.35,304.50 C187.00,304.30 186.64,304.09 186.25,303.85 C185.34,303.28 184.52,302.61 183.80,301.84 ZM 197.12 303.56 C195.35,304.77 193.97,305.50 192.66,305.76 C192.74,305.74 192.82,305.71 192.90,305.69 C194.15,305.38 195.49,304.68 197.12,303.56 ZM 158.36 375.52 C159.15,375.13 160.03,374.66 160.99,374.15 C159.91,374.74 158.97,375.24 158.17,375.64 C158.23,375.60 158.30,375.56 158.36,375.52 ZM 140.13 271.18 C141.09,269.20 142.67,267.70 145.01,266.50 C142.68,267.70 141.09,269.20 140.13,271.18 ZM 55.65 263.63 C55.23,263.90 54.79,264.18 54.35,264.47 C53.65,264.92 52.47,265.67 51.06,266.55 L 51.06 266.55 C52.47,265.67 53.64,264.92 54.35,264.46 C54.76,264.20 55.20,263.92 55.65,263.63 Z" fill="rgb(151,213,186)"/>
<path d="M 0.00 300.00 L 0.00 0.00 L 300.00 0.00 L 600.00 0.00 L 600.00 300.00 L 600.00 600.00 L 300.00 600.00 L 0.00 600.00 L 0.00 300.00 ZM 570.00 576.48 C570.00,574.96 573.77,571.60 577.75,569.59 C579.54,568.69 580.99,567.62 580.98,567.22 C580.97,566.83 579.50,565.83 577.73,565.00 C575.95,564.17 572.92,561.35 571.00,558.71 C567.99,554.60 567.36,554.16 566.50,555.62 C564.35,559.26 559.56,564.18 556.77,565.62 L 553.83 567.14 L 558.35 570.01 C560.83,571.58 563.91,574.70 565.18,576.93 C567.25,580.55 567.63,580.81 568.75,579.30 C569.44,578.38 570.00,577.11 570.00,576.48 ZM 64.25 391.85 C68.31,387.41 68.80,384.86 66.62,379.64 C65.33,376.55 65.43,376.05 68.28,371.32 C71.26,366.36 71.38,366.29 75.49,366.75 C79.12,367.16 80.16,366.80 83.31,364.04 C87.07,360.74 88.76,355.97 87.54,352.13 C87.19,351.01 85.37,348.57 83.52,346.72 L 80.14 343.34 L 79.67 321.63 L 79.20 299.93 L 84.35 296.66 C87.18,294.86 92.06,291.94 95.18,290.16 L 100.86 286.93 L 105.95 290.07 C108.75,291.79 111.69,292.95 112.49,292.64 C114.66,291.81 124.00,284.68 124.00,283.85 C124.00,282.22 103.86,270.00 101.17,270.00 C99.59,270.00 70.02,287.12 66.25,290.22 C65.31,290.99 65.00,297.26 65.00,315.23 C65.00,337.69 65.11,339.17 66.75,338.48 C71.20,336.61 72.72,336.78 73.19,339.20 C73.84,342.60 73.20,343.85 69.95,345.53 C65.93,347.60 64.19,353.53 65.99,358.98 C67.27,362.83 67.19,363.13 63.81,368.23 C60.41,373.36 60.18,373.50 55.57,373.50 C51.49,373.50 50.44,373.95 47.92,376.77 C43.76,381.42 43.81,387.57 48.05,392.40 C53.18,398.25 58.57,398.06 64.25,391.85 ZM 136.84 388.31 C140.50,386.28 145.84,382.90 148.71,380.81 C151.57,378.71 154.32,377.00 154.81,377.00 C156.18,377.00 163.92,372.73 178.60,363.87 C194.07,354.53 193.27,355.99 192.80,338.00 L 192.50 326.50 L 185.50 326.50 L 178.50 326.50 L 178.00 335.50 C177.73,340.45 177.05,345.20 176.50,346.05 C175.95,346.90 171.23,350.23 166.00,353.44 C153.99,360.83 149.15,363.87 146.00,366.00 C144.62,366.93 140.20,369.55 136.17,371.84 L 128.85 375.99 L 120.43 370.74 C102.21,359.39 98.47,357.14 97.73,357.07 C96.76,356.98 91.00,365.97 91.00,367.56 C91.00,368.67 97.02,372.98 110.27,381.35 C113.44,383.36 116.26,385.00 116.54,385.00 C116.81,385.00 118.94,386.24 121.27,387.75 C125.76,390.67 127.97,391.82 129.34,391.93 C129.80,391.97 133.17,390.34 136.84,388.31 ZM 49.69 361.75 C50.14,361.06 50.72,342.95 51.00,321.50 L 51.50 282.50 L 58.00 279.17 C61.58,277.34 70.12,272.44 77.00,268.28 C83.88,264.12 92.09,259.16 95.25,257.25 L 100.99 253.77 L 110.74 259.64 C116.10,262.86 122.74,266.97 125.49,268.77 C128.25,270.57 131.13,271.92 131.90,271.77 C132.67,271.62 134.63,269.04 136.25,266.04 L 139.20 260.57 L 136.21 258.04 C133.40,255.65 126.18,251.06 118.07,246.49 C116.11,245.39 111.74,242.80 108.37,240.74 C101.87,236.78 98.95,236.15 97.13,238.35 C96.51,239.09 94.21,240.50 92.01,241.50 C89.80,242.49 88.00,243.70 88.00,244.18 C88.00,244.66 86.82,245.50 85.38,246.04 C83.10,246.91 63.43,258.59 54.35,264.46 C52.62,265.58 48.04,268.45 44.18,270.83 C37.36,275.04 37.15,275.30 36.65,279.83 C35.78,287.64 36.16,358.29 37.09,360.73 C37.84,362.71 38.65,363.00 43.42,363.00 C46.69,363.00 49.21,362.50 49.69,361.75 ZM 136.33 356.12 C140.27,353.99 148.23,349.33 154.00,345.78 L 164.50 339.31 L 164.77 314.15 C165.06,286.97 165.03,286.84 159.88,290.86 C158.57,291.89 155.57,293.71 153.21,294.91 L 148.91 297.09 L 149.08 313.24 C149.27,331.88 150.42,329.58 136.59,338.33 C130.42,342.23 128.42,343.03 126.09,342.52 C123.84,342.03 122.00,342.67 117.61,345.47 C114.52,347.45 112.00,349.45 112.00,349.93 C112.00,350.70 117.81,354.76 120.50,355.88 C121.05,356.11 122.57,357.13 123.88,358.15 C127.17,360.70 128.16,360.54 136.33,356.12 ZM 107.84 340.34 C111.50,338.33 115.44,335.84 116.59,334.81 C117.74,333.79 119.68,332.75 120.89,332.52 C122.10,332.29 124.76,330.82 126.79,329.25 C128.83,327.69 131.74,325.88 133.25,325.23 L 136.00 324.04 L 136.00 308.42 L 136.00 292.80 L 139.17 289.84 C141.74,287.44 142.85,287.02 144.92,287.63 C150.30,289.23 153.91,288.48 157.48,285.02 C159.36,283.19 161.18,280.47 161.51,278.96 C161.96,276.91 162.88,276.07 165.18,275.61 C170.26,274.60 170.58,274.77 175.91,281.25 C180.56,286.90 181.00,287.85 180.46,291.12 C179.65,296.08 181.98,301.21 186.25,303.85 C190.72,306.61 192.71,306.56 197.12,303.56 C204.34,298.66 204.77,289.79 198.00,285.19 C195.13,283.24 193.66,282.91 189.79,283.35 L 185.09 283.90 L 180.04 277.86 C177.27,274.54 175.03,271.08 175.06,270.16 C175.09,269.25 176.10,265.82 177.31,262.54 C179.37,256.95 179.75,256.52 183.68,255.54 C189.96,253.98 192.66,250.93 192.82,245.22 C192.89,242.63 192.40,239.80 191.72,238.95 C186.47,232.32 175.90,232.42 172.43,239.15 C170.58,242.71 170.63,245.18 172.65,250.87 C174.23,255.34 174.21,255.72 172.02,261.73 C169.41,268.87 168.46,269.91 163.84,270.59 C161.13,270.99 159.86,270.50 157.11,268.04 C153.32,264.63 149.55,264.15 145.01,266.49 C140.80,268.67 139.00,271.83 139.00,277.04 C139.00,282.64 138.11,283.61 124.75,292.52 L 121.00 295.03 L 121.00 304.44 C121.00,315.20 121.05,315.12 111.85,320.51 C108.52,322.46 105.14,324.71 104.33,325.53 C102.32,327.54 100.34,327.38 96.90,324.93 C92.03,321.46 90.55,322.55 90.20,329.88 C89.96,334.88 90.28,336.65 91.70,338.22 C93.15,339.83 99.44,343.77 100.84,343.96 C101.02,343.98 104.17,342.35 107.84,340.34 Z" fill="rgb(254,254,254)"/>
</g>
</svg>